<?xml version="1.0"?>
 <!-- Created with Inkscape (http://www.inkscape.org/) --> <svg width="58.856" height="41.512" version="1.1" viewBox="0 0 58.856 41.512" xmlns="http://www.w3.org/2000/svg" xmlns:cc="http://creativecommons.org/ns#" xmlns:dc="http://purl.org/dc/elements/1.1/" xmlns:rdf="http://www.w3.org/1999/02/22-rdf-syntax-ns#"> <defs> <marker id="Arrow2Mstart-1" overflow="visible" orient="auto"> <path transform="scale(.6)" d="m8.7186 4.0337-10.926-4.0177 10.926-4.0177c-1.7455 2.3721-1.7354 5.6175-6e-7 8.0354z" fill-rule="evenodd" stroke="#000" stroke-linejoin="round" stroke-width=".625"></path> </marker> <marker id="Arrow2Mend-3" overflow="visible" orient="auto"> <path transform="scale(-.6)" d="m8.7186 4.0337-10.926-4.0177 10.926-4.0177c-1.7455 2.3721-1.7354 5.6175-6e-7 8.0354z" fill-rule="evenodd" stroke="#000" stroke-linejoin="round" stroke-width=".625"></path> </marker> <marker id="Arrow2Sstart-1" overflow="visible" orient="auto"> <path transform="matrix(.3 0 0 .3 -.69 0)" d="m8.7186 4.0337-10.926-4.0177 10.926-4.0177c-1.7455 2.3721-1.7354 5.6175-6e-7 8.0354z" fill-rule="evenodd" stroke="#000" stroke-linejoin="round" stroke-width=".625"></path> </marker> <marker id="Arrow2Send-7" overflow="visible" orient="auto"> <path transform="matrix(-.3 0 0 -.3 .69 0)" d="m8.7186 4.0337-10.926-4.0177 10.926-4.0177c-1.7455 2.3721-1.7354 5.6175-6e-7 8.0354z" fill-rule="evenodd" stroke="#000" stroke-linejoin="round" stroke-width=".625"></path> </marker> <marker id="Arrow2Sstart-1-77" overflow="visible" orient="auto"> <path transform="matrix(.3 0 0 .3 -.69 0)" d="m8.7186 4.0337-10.926-4.0177 10.926-4.0177c-1.7455 2.3721-1.7354 5.6175-6e-7 8.0354z" fill-rule="evenodd" stroke="#000" stroke-linejoin="round" stroke-width=".625"></path> </marker> <marker id="Arrow2Send-7-0" overflow="visible" orient="auto"> <path transform="matrix(-.3 0 0 -.3 .69 0)" d="m8.7186 4.0337-10.926-4.0177 10.926-4.0177c-1.7455 2.3721-1.7354 5.6175-6e-7 8.0354z" fill-rule="evenodd" stroke="#000" stroke-linejoin="round" stroke-width=".625"></path> </marker> </defs> <metadata> <rdf:rdf> <cc:work rdf:about=""> <dc:format>image/svg+xml</dc:format> <dc:type rdf:resource="http://purl.org/dc/dcmitype/StillImage"></dc:type> <dc:title></dc:title> </cc:work> </rdf:rdf> </metadata> <g transform="translate(-44.392 -115.63)"> <flowroot transform="matrix(.64974 0 0 .8004 16.141 -53.391)" fill="#000000" font-family="Sans" font-size="40px" letter-spacing="0px" stroke-width="1px" word-spacing="0px" style="line-height:125%" xml:space="preserve"><flowregion><rect x="165" y="6.5579" width="99.286" height="64.286"></rect></flowregion><flowpara></flowpara></flowroot> <path d="m48.981 122.29 0.14862 33.599h50.975" fill="none" marker-end="url(#Arrow2Mend-3)" marker-start="url(#Arrow2Mstart-1)" stroke="#000" stroke-width=".48667"></path> <g fill="#1771dd" stroke="#000" stroke-linecap="square" stroke-miterlimit="1"> <rect x="53.342" y="128.81" width="3.236" height="27.076" rx="0" ry="0" stroke-width=".41971" style="paint-order:fill markers stroke"></rect> <rect x="72.92" y="128.86" width="3.236" height="27.076" rx="0" ry="0" stroke-width=".41971" style="paint-order:fill markers stroke"></rect> <rect x="92.657" y="128.81" width="3.236" height="27.076" rx="0" ry="0" stroke-width=".41971" style="paint-order:fill markers stroke"></rect> </g> <g> <flowroot transform="matrix(.11326 0 0 .13442 36.457 117.4)" fill="#000000" font-family="Sans" font-size="40px" letter-spacing="0px" stroke-width="1px" word-spacing="0px" style="line-height:125%" xml:space="preserve"><flowregion><rect x="575" y="257.27" width="64.286" height="112.14"></rect></flowregion><flowpara>t</flowpara></flowroot> <path d="m57.175 125.16h14.107" fill="none" marker-end="url(#Arrow2Send-7)" marker-start="url(#Arrow2Sstart-1)" stroke="#000" stroke-width=".49125"></path> <text transform="scale(.91792 1.0894)" x="62.519096" y="113.06593" fill="#000000" font-family="Sans" font-size="4.9355px" letter-spacing="0px" stroke-width=".12339px" word-spacing="0px" style="line-height:125%" xml:space="preserve"><tspan x="62.519096" y="113.06593">Δt<tspan baseline-shift="sub" font-size="3.2081px" stroke-width=".12339px">D</tspan></tspan><tspan x="62.519096" y="119.68398"></tspan><tspan x="62.519096" y="125.85331"></tspan></text> </g> <flowroot transform="matrix(.17191 0 0 .21177 16.141 16.244)" fill="#000000" font-family="Sans" font-size="40px" letter-spacing="0px" stroke-width="1px" word-spacing="0px" style="line-height:125%" xml:space="preserve"><flowregion><rect x="317.14" y="312.63" width="5.7143" height="63.929"></rect></flowregion><flowpara>aa</flowpara></flowroot> <g transform="matrix(.33844 0 0 .41691 15.733 79.315)"> <g id="content" transform="matrix(.3 0 0 -.3 -52.5 222.75)" fill-rule="evenodd" stroke="#000" stroke-miterlimit="10.433" stroke-width="0" xml:space="preserve"><path d="m477.2 449.49v0.12l-0.01 0.13-0.02 0.12-0.02 0.13-0.06 0.24-0.04 0.12-0.05 0.12-0.05 0.11-0.06 0.12-0.06 0.11-0.07 0.1-0.07 0.11-0.16 0.2-0.08 0.09-0.1 0.09-0.09 0.09-0.2 0.16-0.22 0.14-0.11 0.06-0.12 0.06-0.12 0.05-0.13 0.04-0.12 0.04-0.13 0.03-0.14 0.03-0.13 0.01-0.14 0.02h-0.14c-1.68 0-2.68-1.39-2.68-2.64 0-1.35 1.14-2.64 2.64-2.64 1.68 0 2.68 1.39 2.68 2.64z"></path><path d="m457.27 440.23v-1.55h1.19c3.84 0 3.93-0.54 3.93-2.34v-26.25c0-1.8-0.09-2.34-3.93-2.34h-1.19v-1.55h18.23l-1.34 1.55h-5.05c-2.32 0-2.43 0.34-2.43 1.98v26.95c0 1.66 0.11 2 2.43 2h4.99c3.09 0 6.53-1.09 9.08-4.64 2.14-2.93 2.57-7.22 2.57-11.11 0-5.53-0.93-8.51-2.73-10.95-1-1.34-3.83-4.23-8.86-4.23l1.34-1.55c8.36 0 15.24 7.37 15.24 16.73 0 9.47-6.72 17.3-15.24 17.3z"></path></g> </g> <path d="m57.04 134.91h3.6181" fill="none" marker-end="url(#Arrow2Send-7-0)" marker-start="url(#Arrow2Sstart-1-77)" stroke="#000" stroke-width=".24879"></path> <g fill="#000000" font-family="Sans" letter-spacing="0px" word-spacing="0px"> <text x="29.744577" y="126.59879" font-size="10.583px" stroke-width=".26458px" style="line-height:125%" xml:space="preserve"><tspan x="29.744577" y="135.96255" stroke-width=".26458px"></tspan></text> <text x="28.610649" y="127.59098" font-size="10.583px" stroke-width=".26458px" style="line-height:125%" xml:space="preserve"><tspan x="28.610649" y="136.95474" stroke-width=".26458px"></tspan></text> <text transform="scale(.96678 1.0344)" x="58.644676" y="135.68501" font-size="6.6402px" stroke-width=".166px" style="line-height:125%" xml:space="preserve"><tspan x="58.644676" y="135.68501" font-family="Sans" font-size="6.6402px" font-style="italic" stroke-width=".166px" style="font-feature-settings:normal;font-variant-caps:normal;font-variant-ligatures:normal;font-variant-numeric:normal">τ</tspan></text> </g> </g> </svg> 