<?xml version="1.0" encoding="utf-8" standalone="no"?>
<!DOCTYPE svg PUBLIC "-//W3C//DTD SVG 1.1//EN"
  "http://www.w3.org/Graphics/SVG/1.1/DTD/svg11.dtd">
<svg xmlns:xlink="http://www.w3.org/1999/xlink" width="864pt" height="432pt" viewBox="0 0 864 432" xmlns="http://www.w3.org/2000/svg" version="1.1">
 <metadata>
  <rdf:RDF xmlns:dc="http://purl.org/dc/elements/1.1/" xmlns:cc="http://creativecommons.org/ns#" xmlns:rdf="http://www.w3.org/1999/02/22-rdf-syntax-ns#">
   <cc:Work>
    <dc:type rdf:resource="http://purl.org/dc/dcmitype/StillImage"/>
    <dc:date>2026-04-14T21:22:30.730501</dc:date>
    <dc:format>image/svg+xml</dc:format>
    <dc:creator>
     <cc:Agent>
      <dc:title>Matplotlib v3.10.0, https://matplotlib.org/</dc:title>
     </cc:Agent>
    </dc:creator>
   </cc:Work>
  </rdf:RDF>
 </metadata>
 <defs>
  <style type="text/css">*{stroke-linejoin: round; stroke-linecap: butt}</style>
 </defs>
 <g id="figure_1">
  <g id="patch_1">
   <path d="M 0 432 
L 864 432 
L 864 0 
L 0 0 
z
" style="fill: #ffffff"/>
  </g>
  <g id="axes_1">
   <g id="patch_2">
    <path d="M 49.52 342.159961 
L 853.2 342.159961 
L 853.2 28.32 
L 49.52 28.32 
z
" style="fill: #ffffff"/>
   </g>
   <g id="matplotlib.axis_1">
    <g id="xtick_1">
     <g id="line2d_1">
      <defs>
       <path id="m8dd64793e6" d="M 0 0 
L 0 3.5 
" style="stroke: #000000; stroke-width: 0.8"/>
      </defs>
      <g>
       <use xlink:href="#m8dd64793e6" x="109.368511" y="342.159961" style="stroke: #000000; stroke-width: 0.8"/>
      </g>
     </g>
     <g id="text_1">
      <!-- PROSTATA LOCAL. -->
      <g transform="translate(44.538972 417.891845) rotate(-45) scale(0.1 -0.1)">
       <defs>
        <path id="DejaVuSans-50" d="M 1259 4147 
L 1259 2394 
L 2053 2394 
Q 2494 2394 2734 2622 
Q 2975 2850 2975 3272 
Q 2975 3691 2734 3919 
Q 2494 4147 2053 4147 
L 1259 4147 
z
M 628 4666 
L 2053 4666 
Q 2838 4666 3239 4311 
Q 3641 3956 3641 3272 
Q 3641 2581 3239 2228 
Q 2838 1875 2053 1875 
L 1259 1875 
L 1259 0 
L 628 0 
L 628 4666 
z
" transform="scale(0.015625)"/>
        <path id="DejaVuSans-52" d="M 2841 2188 
Q 3044 2119 3236 1894 
Q 3428 1669 3622 1275 
L 4263 0 
L 3584 0 
L 2988 1197 
Q 2756 1666 2539 1819 
Q 2322 1972 1947 1972 
L 1259 1972 
L 1259 0 
L 628 0 
L 628 4666 
L 2053 4666 
Q 2853 4666 3247 4331 
Q 3641 3997 3641 3322 
Q 3641 2881 3436 2590 
Q 3231 2300 2841 2188 
z
M 1259 4147 
L 1259 2491 
L 2053 2491 
Q 2509 2491 2742 2702 
Q 2975 2913 2975 3322 
Q 2975 3731 2742 3939 
Q 2509 4147 2053 4147 
L 1259 4147 
z
" transform="scale(0.015625)"/>
        <path id="DejaVuSans-4f" d="M 2522 4238 
Q 1834 4238 1429 3725 
Q 1025 3213 1025 2328 
Q 1025 1447 1429 934 
Q 1834 422 2522 422 
Q 3209 422 3611 934 
Q 4013 1447 4013 2328 
Q 4013 3213 3611 3725 
Q 3209 4238 2522 4238 
z
M 2522 4750 
Q 3503 4750 4090 4092 
Q 4678 3434 4678 2328 
Q 4678 1225 4090 567 
Q 3503 -91 2522 -91 
Q 1538 -91 948 565 
Q 359 1222 359 2328 
Q 359 3434 948 4092 
Q 1538 4750 2522 4750 
z
" transform="scale(0.015625)"/>
        <path id="DejaVuSans-53" d="M 3425 4513 
L 3425 3897 
Q 3066 4069 2747 4153 
Q 2428 4238 2131 4238 
Q 1616 4238 1336 4038 
Q 1056 3838 1056 3469 
Q 1056 3159 1242 3001 
Q 1428 2844 1947 2747 
L 2328 2669 
Q 3034 2534 3370 2195 
Q 3706 1856 3706 1288 
Q 3706 609 3251 259 
Q 2797 -91 1919 -91 
Q 1588 -91 1214 -16 
Q 841 59 441 206 
L 441 856 
Q 825 641 1194 531 
Q 1563 422 1919 422 
Q 2459 422 2753 634 
Q 3047 847 3047 1241 
Q 3047 1584 2836 1778 
Q 2625 1972 2144 2069 
L 1759 2144 
Q 1053 2284 737 2584 
Q 422 2884 422 3419 
Q 422 4038 858 4394 
Q 1294 4750 2059 4750 
Q 2388 4750 2728 4690 
Q 3069 4631 3425 4513 
z
" transform="scale(0.015625)"/>
        <path id="DejaVuSans-54" d="M -19 4666 
L 3928 4666 
L 3928 4134 
L 2272 4134 
L 2272 0 
L 1638 0 
L 1638 4134 
L -19 4134 
L -19 4666 
z
" transform="scale(0.015625)"/>
        <path id="DejaVuSans-41" d="M 2188 4044 
L 1331 1722 
L 3047 1722 
L 2188 4044 
z
M 1831 4666 
L 2547 4666 
L 4325 0 
L 3669 0 
L 3244 1197 
L 1141 1197 
L 716 0 
L 50 0 
L 1831 4666 
z
" transform="scale(0.015625)"/>
        <path id="DejaVuSans-20" transform="scale(0.015625)"/>
        <path id="DejaVuSans-4c" d="M 628 4666 
L 1259 4666 
L 1259 531 
L 3531 531 
L 3531 0 
L 628 0 
L 628 4666 
z
" transform="scale(0.015625)"/>
        <path id="DejaVuSans-43" d="M 4122 4306 
L 4122 3641 
Q 3803 3938 3442 4084 
Q 3081 4231 2675 4231 
Q 1875 4231 1450 3742 
Q 1025 3253 1025 2328 
Q 1025 1406 1450 917 
Q 1875 428 2675 428 
Q 3081 428 3442 575 
Q 3803 722 4122 1019 
L 4122 359 
Q 3791 134 3420 21 
Q 3050 -91 2638 -91 
Q 1578 -91 968 557 
Q 359 1206 359 2328 
Q 359 3453 968 4101 
Q 1578 4750 2638 4750 
Q 3056 4750 3426 4639 
Q 3797 4528 4122 4306 
z
" transform="scale(0.015625)"/>
        <path id="DejaVuSans-2e" d="M 684 794 
L 1344 794 
L 1344 0 
L 684 0 
L 684 794 
z
" transform="scale(0.015625)"/>
       </defs>
       <use xlink:href="#DejaVuSans-50"/>
       <use xlink:href="#DejaVuSans-52" transform="translate(60.302734 0)"/>
       <use xlink:href="#DejaVuSans-4f" transform="translate(129.785156 0)"/>
       <use xlink:href="#DejaVuSans-53" transform="translate(208.496094 0)"/>
       <use xlink:href="#DejaVuSans-54" transform="translate(271.972656 0)"/>
       <use xlink:href="#DejaVuSans-41" transform="translate(325.306641 0)"/>
       <use xlink:href="#DejaVuSans-54" transform="translate(385.964844 0)"/>
       <use xlink:href="#DejaVuSans-41" transform="translate(439.298828 0)"/>
       <use xlink:href="#DejaVuSans-20" transform="translate(507.707031 0)"/>
       <use xlink:href="#DejaVuSans-4c" transform="translate(539.494141 0)"/>
       <use xlink:href="#DejaVuSans-4f" transform="translate(591.582031 0)"/>
       <use xlink:href="#DejaVuSans-43" transform="translate(670.292969 0)"/>
       <use xlink:href="#DejaVuSans-41" transform="translate(740.117188 0)"/>
       <use xlink:href="#DejaVuSans-4c" transform="translate(808.525391 0)"/>
       <use xlink:href="#DejaVuSans-2e" transform="translate(864.238281 0)"/>
      </g>
     </g>
    </g>
    <g id="xtick_2">
     <g id="line2d_2">
      <g>
       <use xlink:href="#m8dd64793e6" x="280.364255" y="342.159961" style="stroke: #000000; stroke-width: 0.8"/>
      </g>
     </g>
     <g id="text_2">
      <!-- PROSTATA+PELVIS -->
      <g transform="translate(213.762531 419.664031) rotate(-45) scale(0.1 -0.1)">
       <defs>
        <path id="DejaVuSans-2b" d="M 2944 4013 
L 2944 2272 
L 4684 2272 
L 4684 1741 
L 2944 1741 
L 2944 0 
L 2419 0 
L 2419 1741 
L 678 1741 
L 678 2272 
L 2419 2272 
L 2419 4013 
L 2944 4013 
z
" transform="scale(0.015625)"/>
        <path id="DejaVuSans-45" d="M 628 4666 
L 3578 4666 
L 3578 4134 
L 1259 4134 
L 1259 2753 
L 3481 2753 
L 3481 2222 
L 1259 2222 
L 1259 531 
L 3634 531 
L 3634 0 
L 628 0 
L 628 4666 
z
" transform="scale(0.015625)"/>
        <path id="DejaVuSans-56" d="M 1831 0 
L 50 4666 
L 709 4666 
L 2188 738 
L 3669 4666 
L 4325 4666 
L 2547 0 
L 1831 0 
z
" transform="scale(0.015625)"/>
        <path id="DejaVuSans-49" d="M 628 4666 
L 1259 4666 
L 1259 0 
L 628 0 
L 628 4666 
z
" transform="scale(0.015625)"/>
       </defs>
       <use xlink:href="#DejaVuSans-50"/>
       <use xlink:href="#DejaVuSans-52" transform="translate(60.302734 0)"/>
       <use xlink:href="#DejaVuSans-4f" transform="translate(129.785156 0)"/>
       <use xlink:href="#DejaVuSans-53" transform="translate(208.496094 0)"/>
       <use xlink:href="#DejaVuSans-54" transform="translate(271.972656 0)"/>
       <use xlink:href="#DejaVuSans-41" transform="translate(325.306641 0)"/>
       <use xlink:href="#DejaVuSans-54" transform="translate(385.964844 0)"/>
       <use xlink:href="#DejaVuSans-41" transform="translate(439.298828 0)"/>
       <use xlink:href="#DejaVuSans-2b" transform="translate(507.707031 0)"/>
       <use xlink:href="#DejaVuSans-50" transform="translate(591.496094 0)"/>
       <use xlink:href="#DejaVuSans-45" transform="translate(651.798828 0)"/>
       <use xlink:href="#DejaVuSans-4c" transform="translate(714.982422 0)"/>
       <use xlink:href="#DejaVuSans-56" transform="translate(759.695312 0)"/>
       <use xlink:href="#DejaVuSans-49" transform="translate(828.103516 0)"/>
       <use xlink:href="#DejaVuSans-53" transform="translate(857.595703 0)"/>
      </g>
     </g>
    </g>
    <g id="xtick_3">
     <g id="line2d_3">
      <g>
       <use xlink:href="#m8dd64793e6" x="451.36" y="342.159961" style="stroke: #000000; stroke-width: 0.8"/>
      </g>
     </g>
     <g id="text_3">
      <!-- ORL -->
      <g transform="translate(435.469985 368.952322) rotate(-45) scale(0.1 -0.1)">
       <use xlink:href="#DejaVuSans-4f"/>
       <use xlink:href="#DejaVuSans-52" transform="translate(78.710938 0)"/>
       <use xlink:href="#DejaVuSans-4c" transform="translate(148.193359 0)"/>
      </g>
     </g>
    </g>
    <g id="xtick_4">
     <g id="line2d_4">
      <g>
       <use xlink:href="#m8dd64793e6" x="622.355745" y="342.159961" style="stroke: #000000; stroke-width: 0.8"/>
      </g>
     </g>
     <g id="text_4">
      <!-- RECTO -->
      <g transform="translate(596.681139 378.736912) rotate(-45) scale(0.1 -0.1)">
       <use xlink:href="#DejaVuSans-52"/>
       <use xlink:href="#DejaVuSans-45" transform="translate(69.482422 0)"/>
       <use xlink:href="#DejaVuSans-43" transform="translate(132.666016 0)"/>
       <use xlink:href="#DejaVuSans-54" transform="translate(202.490234 0)"/>
       <use xlink:href="#DejaVuSans-4f" transform="translate(263.574219 0)"/>
      </g>
     </g>
    </g>
    <g id="xtick_5">
     <g id="line2d_5">
      <g>
       <use xlink:href="#m8dd64793e6" x="793.351489" y="342.159961" style="stroke: #000000; stroke-width: 0.8"/>
      </g>
     </g>
     <g id="text_5">
      <!-- MAMA -->
      <g transform="translate(770.004812 376.408984) rotate(-45) scale(0.1 -0.1)">
       <defs>
        <path id="DejaVuSans-4d" d="M 628 4666 
L 1569 4666 
L 2759 1491 
L 3956 4666 
L 4897 4666 
L 4897 0 
L 4281 0 
L 4281 4097 
L 3078 897 
L 2444 897 
L 1241 4097 
L 1241 0 
L 628 0 
L 628 4666 
z
" transform="scale(0.015625)"/>
       </defs>
       <use xlink:href="#DejaVuSans-4d"/>
       <use xlink:href="#DejaVuSans-41" transform="translate(86.279297 0)"/>
       <use xlink:href="#DejaVuSans-4d" transform="translate(154.6875 0)"/>
       <use xlink:href="#DejaVuSans-41" transform="translate(240.966797 0)"/>
      </g>
     </g>
    </g>
   </g>
   <g id="matplotlib.axis_2">
    <g id="ytick_1">
     <g id="line2d_6">
      <path d="M 49.52 321.97153 
L 853.2 321.97153 
" clip-path="url(#p140192b120)" style="fill: none; stroke-dasharray: 2.96,1.28; stroke-dashoffset: 0; stroke: #b0b0b0; stroke-opacity: 0.7; stroke-width: 0.8"/>
     </g>
     <g id="line2d_7">
      <defs>
       <path id="ma186aca7d0" d="M 0 0 
L -3.5 0 
" style="stroke: #000000; stroke-width: 0.8"/>
      </defs>
      <g>
       <use xlink:href="#ma186aca7d0" x="49.52" y="321.97153" style="stroke: #000000; stroke-width: 0.8"/>
      </g>
     </g>
     <g id="text_6">
      <!-- −3 -->
      <g transform="translate(27.777813 325.770749) scale(0.1 -0.1)">
       <defs>
        <path id="DejaVuSans-2212" d="M 678 2272 
L 4684 2272 
L 4684 1741 
L 678 1741 
L 678 2272 
z
" transform="scale(0.015625)"/>
        <path id="DejaVuSans-33" d="M 2597 2516 
Q 3050 2419 3304 2112 
Q 3559 1806 3559 1356 
Q 3559 666 3084 287 
Q 2609 -91 1734 -91 
Q 1441 -91 1130 -33 
Q 819 25 488 141 
L 488 750 
Q 750 597 1062 519 
Q 1375 441 1716 441 
Q 2309 441 2620 675 
Q 2931 909 2931 1356 
Q 2931 1769 2642 2001 
Q 2353 2234 1838 2234 
L 1294 2234 
L 1294 2753 
L 1863 2753 
Q 2328 2753 2575 2939 
Q 2822 3125 2822 3475 
Q 2822 3834 2567 4026 
Q 2313 4219 1838 4219 
Q 1578 4219 1281 4162 
Q 984 4106 628 3988 
L 628 4550 
Q 988 4650 1302 4700 
Q 1616 4750 1894 4750 
Q 2613 4750 3031 4423 
Q 3450 4097 3450 3541 
Q 3450 3153 3228 2886 
Q 3006 2619 2597 2516 
z
" transform="scale(0.015625)"/>
       </defs>
       <use xlink:href="#DejaVuSans-2212"/>
       <use xlink:href="#DejaVuSans-33" transform="translate(83.789062 0)"/>
      </g>
     </g>
    </g>
    <g id="ytick_2">
     <g id="line2d_8">
      <path d="M 49.52 274.296115 
L 853.2 274.296115 
" clip-path="url(#p140192b120)" style="fill: none; stroke-dasharray: 2.96,1.28; stroke-dashoffset: 0; stroke: #b0b0b0; stroke-opacity: 0.7; stroke-width: 0.8"/>
     </g>
     <g id="line2d_9">
      <g>
       <use xlink:href="#ma186aca7d0" x="49.52" y="274.296115" style="stroke: #000000; stroke-width: 0.8"/>
      </g>
     </g>
     <g id="text_7">
      <!-- −2 -->
      <g transform="translate(27.777813 278.095334) scale(0.1 -0.1)">
       <defs>
        <path id="DejaVuSans-32" d="M 1228 531 
L 3431 531 
L 3431 0 
L 469 0 
L 469 531 
Q 828 903 1448 1529 
Q 2069 2156 2228 2338 
Q 2531 2678 2651 2914 
Q 2772 3150 2772 3378 
Q 2772 3750 2511 3984 
Q 2250 4219 1831 4219 
Q 1534 4219 1204 4116 
Q 875 4013 500 3803 
L 500 4441 
Q 881 4594 1212 4672 
Q 1544 4750 1819 4750 
Q 2544 4750 2975 4387 
Q 3406 4025 3406 3419 
Q 3406 3131 3298 2873 
Q 3191 2616 2906 2266 
Q 2828 2175 2409 1742 
Q 1991 1309 1228 531 
z
" transform="scale(0.015625)"/>
       </defs>
       <use xlink:href="#DejaVuSans-2212"/>
       <use xlink:href="#DejaVuSans-32" transform="translate(83.789062 0)"/>
      </g>
     </g>
    </g>
    <g id="ytick_3">
     <g id="line2d_10">
      <path d="M 49.52 226.6207 
L 853.2 226.6207 
" clip-path="url(#p140192b120)" style="fill: none; stroke-dasharray: 2.96,1.28; stroke-dashoffset: 0; stroke: #b0b0b0; stroke-opacity: 0.7; stroke-width: 0.8"/>
     </g>
     <g id="line2d_11">
      <g>
       <use xlink:href="#ma186aca7d0" x="49.52" y="226.6207" style="stroke: #000000; stroke-width: 0.8"/>
      </g>
     </g>
     <g id="text_8">
      <!-- −1 -->
      <g transform="translate(27.777813 230.419919) scale(0.1 -0.1)">
       <defs>
        <path id="DejaVuSans-31" d="M 794 531 
L 1825 531 
L 1825 4091 
L 703 3866 
L 703 4441 
L 1819 4666 
L 2450 4666 
L 2450 531 
L 3481 531 
L 3481 0 
L 794 0 
L 794 531 
z
" transform="scale(0.015625)"/>
       </defs>
       <use xlink:href="#DejaVuSans-2212"/>
       <use xlink:href="#DejaVuSans-31" transform="translate(83.789062 0)"/>
      </g>
     </g>
    </g>
    <g id="ytick_4">
     <g id="line2d_12">
      <path d="M 49.52 178.945285 
L 853.2 178.945285 
" clip-path="url(#p140192b120)" style="fill: none; stroke-dasharray: 2.96,1.28; stroke-dashoffset: 0; stroke: #b0b0b0; stroke-opacity: 0.7; stroke-width: 0.8"/>
     </g>
     <g id="line2d_13">
      <g>
       <use xlink:href="#ma186aca7d0" x="49.52" y="178.945285" style="stroke: #000000; stroke-width: 0.8"/>
      </g>
     </g>
     <g id="text_9">
      <!-- 0 -->
      <g transform="translate(36.1575 182.744503) scale(0.1 -0.1)">
       <defs>
        <path id="DejaVuSans-30" d="M 2034 4250 
Q 1547 4250 1301 3770 
Q 1056 3291 1056 2328 
Q 1056 1369 1301 889 
Q 1547 409 2034 409 
Q 2525 409 2770 889 
Q 3016 1369 3016 2328 
Q 3016 3291 2770 3770 
Q 2525 4250 2034 4250 
z
M 2034 4750 
Q 2819 4750 3233 4129 
Q 3647 3509 3647 2328 
Q 3647 1150 3233 529 
Q 2819 -91 2034 -91 
Q 1250 -91 836 529 
Q 422 1150 422 2328 
Q 422 3509 836 4129 
Q 1250 4750 2034 4750 
z
" transform="scale(0.015625)"/>
       </defs>
       <use xlink:href="#DejaVuSans-30"/>
      </g>
     </g>
    </g>
    <g id="ytick_5">
     <g id="line2d_14">
      <path d="M 49.52 131.26987 
L 853.2 131.26987 
" clip-path="url(#p140192b120)" style="fill: none; stroke-dasharray: 2.96,1.28; stroke-dashoffset: 0; stroke: #b0b0b0; stroke-opacity: 0.7; stroke-width: 0.8"/>
     </g>
     <g id="line2d_15">
      <g>
       <use xlink:href="#ma186aca7d0" x="49.52" y="131.26987" style="stroke: #000000; stroke-width: 0.8"/>
      </g>
     </g>
     <g id="text_10">
      <!-- 1 -->
      <g transform="translate(36.1575 135.069088) scale(0.1 -0.1)">
       <use xlink:href="#DejaVuSans-31"/>
      </g>
     </g>
    </g>
    <g id="ytick_6">
     <g id="line2d_16">
      <path d="M 49.52 83.594454 
L 853.2 83.594454 
" clip-path="url(#p140192b120)" style="fill: none; stroke-dasharray: 2.96,1.28; stroke-dashoffset: 0; stroke: #b0b0b0; stroke-opacity: 0.7; stroke-width: 0.8"/>
     </g>
     <g id="line2d_17">
      <g>
       <use xlink:href="#ma186aca7d0" x="49.52" y="83.594454" style="stroke: #000000; stroke-width: 0.8"/>
      </g>
     </g>
     <g id="text_11">
      <!-- 2 -->
      <g transform="translate(36.1575 87.393673) scale(0.1 -0.1)">
       <use xlink:href="#DejaVuSans-32"/>
      </g>
     </g>
    </g>
    <g id="ytick_7">
     <g id="line2d_18">
      <path d="M 49.52 35.919039 
L 853.2 35.919039 
" clip-path="url(#p140192b120)" style="fill: none; stroke-dasharray: 2.96,1.28; stroke-dashoffset: 0; stroke: #b0b0b0; stroke-opacity: 0.7; stroke-width: 0.8"/>
     </g>
     <g id="line2d_19">
      <g>
       <use xlink:href="#ma186aca7d0" x="49.52" y="35.919039" style="stroke: #000000; stroke-width: 0.8"/>
      </g>
     </g>
     <g id="text_12">
      <!-- 3 -->
      <g transform="translate(36.1575 39.718258) scale(0.1 -0.1)">
       <use xlink:href="#DejaVuSans-33"/>
      </g>
     </g>
    </g>
    <g id="text_13">
     <!-- CI Total Dosis Dev -->
     <g transform="translate(21.282188 239.004668) rotate(-90) scale(0.12 -0.12)">
      <defs>
       <path id="DejaVuSans-6f" d="M 1959 3097 
Q 1497 3097 1228 2736 
Q 959 2375 959 1747 
Q 959 1119 1226 758 
Q 1494 397 1959 397 
Q 2419 397 2687 759 
Q 2956 1122 2956 1747 
Q 2956 2369 2687 2733 
Q 2419 3097 1959 3097 
z
M 1959 3584 
Q 2709 3584 3137 3096 
Q 3566 2609 3566 1747 
Q 3566 888 3137 398 
Q 2709 -91 1959 -91 
Q 1206 -91 779 398 
Q 353 888 353 1747 
Q 353 2609 779 3096 
Q 1206 3584 1959 3584 
z
" transform="scale(0.015625)"/>
       <path id="DejaVuSans-74" d="M 1172 4494 
L 1172 3500 
L 2356 3500 
L 2356 3053 
L 1172 3053 
L 1172 1153 
Q 1172 725 1289 603 
Q 1406 481 1766 481 
L 2356 481 
L 2356 0 
L 1766 0 
Q 1100 0 847 248 
Q 594 497 594 1153 
L 594 3053 
L 172 3053 
L 172 3500 
L 594 3500 
L 594 4494 
L 1172 4494 
z
" transform="scale(0.015625)"/>
       <path id="DejaVuSans-61" d="M 2194 1759 
Q 1497 1759 1228 1600 
Q 959 1441 959 1056 
Q 959 750 1161 570 
Q 1363 391 1709 391 
Q 2188 391 2477 730 
Q 2766 1069 2766 1631 
L 2766 1759 
L 2194 1759 
z
M 3341 1997 
L 3341 0 
L 2766 0 
L 2766 531 
Q 2569 213 2275 61 
Q 1981 -91 1556 -91 
Q 1019 -91 701 211 
Q 384 513 384 1019 
Q 384 1609 779 1909 
Q 1175 2209 1959 2209 
L 2766 2209 
L 2766 2266 
Q 2766 2663 2505 2880 
Q 2244 3097 1772 3097 
Q 1472 3097 1187 3025 
Q 903 2953 641 2809 
L 641 3341 
Q 956 3463 1253 3523 
Q 1550 3584 1831 3584 
Q 2591 3584 2966 3190 
Q 3341 2797 3341 1997 
z
" transform="scale(0.015625)"/>
       <path id="DejaVuSans-6c" d="M 603 4863 
L 1178 4863 
L 1178 0 
L 603 0 
L 603 4863 
z
" transform="scale(0.015625)"/>
       <path id="DejaVuSans-44" d="M 1259 4147 
L 1259 519 
L 2022 519 
Q 2988 519 3436 956 
Q 3884 1394 3884 2338 
Q 3884 3275 3436 3711 
Q 2988 4147 2022 4147 
L 1259 4147 
z
M 628 4666 
L 1925 4666 
Q 3281 4666 3915 4102 
Q 4550 3538 4550 2338 
Q 4550 1131 3912 565 
Q 3275 0 1925 0 
L 628 0 
L 628 4666 
z
" transform="scale(0.015625)"/>
       <path id="DejaVuSans-73" d="M 2834 3397 
L 2834 2853 
Q 2591 2978 2328 3040 
Q 2066 3103 1784 3103 
Q 1356 3103 1142 2972 
Q 928 2841 928 2578 
Q 928 2378 1081 2264 
Q 1234 2150 1697 2047 
L 1894 2003 
Q 2506 1872 2764 1633 
Q 3022 1394 3022 966 
Q 3022 478 2636 193 
Q 2250 -91 1575 -91 
Q 1294 -91 989 -36 
Q 684 19 347 128 
L 347 722 
Q 666 556 975 473 
Q 1284 391 1588 391 
Q 1994 391 2212 530 
Q 2431 669 2431 922 
Q 2431 1156 2273 1281 
Q 2116 1406 1581 1522 
L 1381 1569 
Q 847 1681 609 1914 
Q 372 2147 372 2553 
Q 372 3047 722 3315 
Q 1072 3584 1716 3584 
Q 2034 3584 2315 3537 
Q 2597 3491 2834 3397 
z
" transform="scale(0.015625)"/>
       <path id="DejaVuSans-69" d="M 603 3500 
L 1178 3500 
L 1178 0 
L 603 0 
L 603 3500 
z
M 603 4863 
L 1178 4863 
L 1178 4134 
L 603 4134 
L 603 4863 
z
" transform="scale(0.015625)"/>
       <path id="DejaVuSans-65" d="M 3597 1894 
L 3597 1613 
L 953 1613 
Q 991 1019 1311 708 
Q 1631 397 2203 397 
Q 2534 397 2845 478 
Q 3156 559 3463 722 
L 3463 178 
Q 3153 47 2828 -22 
Q 2503 -91 2169 -91 
Q 1331 -91 842 396 
Q 353 884 353 1716 
Q 353 2575 817 3079 
Q 1281 3584 2069 3584 
Q 2775 3584 3186 3129 
Q 3597 2675 3597 1894 
z
M 3022 2063 
Q 3016 2534 2758 2815 
Q 2500 3097 2075 3097 
Q 1594 3097 1305 2825 
Q 1016 2553 972 2059 
L 3022 2063 
z
" transform="scale(0.015625)"/>
       <path id="DejaVuSans-76" d="M 191 3500 
L 800 3500 
L 1894 563 
L 2988 3500 
L 3597 3500 
L 2284 0 
L 1503 0 
L 191 3500 
z
" transform="scale(0.015625)"/>
      </defs>
      <use xlink:href="#DejaVuSans-43"/>
      <use xlink:href="#DejaVuSans-49" transform="translate(69.824219 0)"/>
      <use xlink:href="#DejaVuSans-20" transform="translate(99.316406 0)"/>
      <use xlink:href="#DejaVuSans-54" transform="translate(131.103516 0)"/>
      <use xlink:href="#DejaVuSans-6f" transform="translate(175.1875 0)"/>
      <use xlink:href="#DejaVuSans-74" transform="translate(236.369141 0)"/>
      <use xlink:href="#DejaVuSans-61" transform="translate(275.578125 0)"/>
      <use xlink:href="#DejaVuSans-6c" transform="translate(336.857422 0)"/>
      <use xlink:href="#DejaVuSans-20" transform="translate(364.640625 0)"/>
      <use xlink:href="#DejaVuSans-44" transform="translate(396.427734 0)"/>
      <use xlink:href="#DejaVuSans-6f" transform="translate(473.429688 0)"/>
      <use xlink:href="#DejaVuSans-73" transform="translate(534.611328 0)"/>
      <use xlink:href="#DejaVuSans-69" transform="translate(586.710938 0)"/>
      <use xlink:href="#DejaVuSans-73" transform="translate(614.494141 0)"/>
      <use xlink:href="#DejaVuSans-20" transform="translate(666.59375 0)"/>
      <use xlink:href="#DejaVuSans-44" transform="translate(698.380859 0)"/>
      <use xlink:href="#DejaVuSans-65" transform="translate(775.382812 0)"/>
      <use xlink:href="#DejaVuSans-76" transform="translate(836.90625 0)"/>
     </g>
    </g>
   </g>
   <g id="patch_3">
    <path d="M 75.169362 201.27676 
L 109.368511 201.27676 
L 109.368511 173.125219 
L 75.169362 173.125219 
L 75.169362 201.27676 
z
" clip-path="url(#p140192b120)" style="fill: #0000ff; stroke: #0000ff; stroke-linejoin: miter"/>
   </g>
   <g id="line2d_20">
    <path d="M 92.268936 201.27676 
L 92.268936 241.229156 
" clip-path="url(#p140192b120)" style="fill: none; stroke: #0000ff; stroke-linecap: square"/>
   </g>
   <g id="line2d_21">
    <path d="M 92.268936 173.125219 
L 92.268936 133.027977 
" clip-path="url(#p140192b120)" style="fill: none; stroke: #0000ff; stroke-linecap: square"/>
   </g>
   <g id="line2d_22">
    <path d="M 83.719149 241.229156 
L 100.818723 241.229156 
" clip-path="url(#p140192b120)" style="fill: none; stroke: #0000ff; stroke-linecap: square"/>
   </g>
   <g id="line2d_23">
    <path d="M 83.719149 133.027977 
L 100.818723 133.027977 
" clip-path="url(#p140192b120)" style="fill: none; stroke: #0000ff; stroke-linecap: square"/>
   </g>
   <g id="line2d_24">
    <defs>
     <path id="mf57c227c50" d="M 0 2.5 
C 0.663008 2.5 1.29895 2.236584 1.767767 1.767767 
C 2.236584 1.29895 2.5 0.663008 2.5 0 
C 2.5 -0.663008 2.236584 -1.29895 1.767767 -1.767767 
C 1.29895 -2.236584 0.663008 -2.5 0 -2.5 
C -0.663008 -2.5 -1.29895 -2.236584 -1.767767 -1.767767 
C -2.236584 -1.29895 -2.5 -0.663008 -2.5 0 
C -2.5 0.663008 -2.236584 1.29895 -1.767767 1.767767 
C -1.29895 2.236584 -0.663008 2.5 0 2.5 
z
" style="stroke: #0000ff; stroke-opacity: 0.5"/>
    </defs>
    <g clip-path="url(#p140192b120)">
     <use xlink:href="#mf57c227c50" x="92.268936" y="289.506466" style="fill: #0000ff; fill-opacity: 0.5; stroke: #0000ff; stroke-opacity: 0.5"/>
     <use xlink:href="#mf57c227c50" x="92.268936" y="278.357542" style="fill: #0000ff; fill-opacity: 0.5; stroke: #0000ff; stroke-opacity: 0.5"/>
     <use xlink:href="#mf57c227c50" x="92.268936" y="265.48053" style="fill: #0000ff; fill-opacity: 0.5; stroke: #0000ff; stroke-opacity: 0.5"/>
     <use xlink:href="#mf57c227c50" x="92.268936" y="248.566098" style="fill: #0000ff; fill-opacity: 0.5; stroke: #0000ff; stroke-opacity: 0.5"/>
     <use xlink:href="#mf57c227c50" x="92.268936" y="256.671744" style="fill: #0000ff; fill-opacity: 0.5; stroke: #0000ff; stroke-opacity: 0.5"/>
     <use xlink:href="#mf57c227c50" x="92.268936" y="269.549926" style="fill: #0000ff; fill-opacity: 0.5; stroke: #0000ff; stroke-opacity: 0.5"/>
     <use xlink:href="#mf57c227c50" x="92.268936" y="245.71881" style="fill: #0000ff; fill-opacity: 0.5; stroke: #0000ff; stroke-opacity: 0.5"/>
     <use xlink:href="#mf57c227c50" x="92.268936" y="252.499127" style="fill: #0000ff; fill-opacity: 0.5; stroke: #0000ff; stroke-opacity: 0.5"/>
    </g>
   </g>
   <g id="patch_4">
    <path d="M 246.165106 173.736942 
L 280.364255 173.736942 
L 280.364255 146.320977 
L 246.165106 146.320977 
L 246.165106 173.736942 
z
" clip-path="url(#p140192b120)" style="fill: #0000ff; stroke: #0000ff; stroke-linejoin: miter"/>
   </g>
   <g id="line2d_25">
    <path d="M 263.264681 173.736942 
L 263.264681 212.399648 
" clip-path="url(#p140192b120)" style="fill: none; stroke: #0000ff; stroke-linecap: square"/>
   </g>
   <g id="line2d_26">
    <path d="M 263.264681 146.320977 
L 263.264681 114.841125 
" clip-path="url(#p140192b120)" style="fill: none; stroke: #0000ff; stroke-linecap: square"/>
   </g>
   <g id="line2d_27">
    <path d="M 254.714894 212.399648 
L 271.814468 212.399648 
" clip-path="url(#p140192b120)" style="fill: none; stroke: #0000ff; stroke-linecap: square"/>
   </g>
   <g id="line2d_28">
    <path d="M 254.714894 114.841125 
L 271.814468 114.841125 
" clip-path="url(#p140192b120)" style="fill: none; stroke: #0000ff; stroke-linecap: square"/>
   </g>
   <g id="line2d_29">
    <g clip-path="url(#p140192b120)">
     <use xlink:href="#mf57c227c50" x="263.264681" y="228.956213" style="fill: #0000ff; fill-opacity: 0.5; stroke: #0000ff; stroke-opacity: 0.5"/>
     <use xlink:href="#mf57c227c50" x="263.264681" y="225.84007" style="fill: #0000ff; fill-opacity: 0.5; stroke: #0000ff; stroke-opacity: 0.5"/>
     <use xlink:href="#mf57c227c50" x="263.264681" y="311.349264" style="fill: #0000ff; fill-opacity: 0.5; stroke: #0000ff; stroke-opacity: 0.5"/>
     <use xlink:href="#mf57c227c50" x="263.264681" y="42.585453" style="fill: #0000ff; fill-opacity: 0.5; stroke: #0000ff; stroke-opacity: 0.5"/>
     <use xlink:href="#mf57c227c50" x="263.264681" y="87.350703" style="fill: #0000ff; fill-opacity: 0.5; stroke: #0000ff; stroke-opacity: 0.5"/>
    </g>
   </g>
   <g id="patch_5">
    <path d="M 417.160851 193.476834 
L 451.36 193.476834 
L 451.36 146.007713 
L 417.160851 146.007713 
L 417.160851 193.476834 
z
" clip-path="url(#p140192b120)" style="fill: #0000ff; stroke: #0000ff; stroke-linejoin: miter"/>
   </g>
   <g id="line2d_30">
    <path d="M 434.260426 193.476834 
L 434.260426 261.076069 
" clip-path="url(#p140192b120)" style="fill: none; stroke: #0000ff; stroke-linecap: square"/>
   </g>
   <g id="line2d_31">
    <path d="M 434.260426 146.007713 
L 434.260426 89.817616 
" clip-path="url(#p140192b120)" style="fill: none; stroke: #0000ff; stroke-linecap: square"/>
   </g>
   <g id="line2d_32">
    <path d="M 425.710638 261.076069 
L 442.810213 261.076069 
" clip-path="url(#p140192b120)" style="fill: none; stroke: #0000ff; stroke-linecap: square"/>
   </g>
   <g id="line2d_33">
    <path d="M 425.710638 89.817616 
L 442.810213 89.817616 
" clip-path="url(#p140192b120)" style="fill: none; stroke: #0000ff; stroke-linecap: square"/>
   </g>
   <g id="line2d_34">
    <g clip-path="url(#p140192b120)">
     <use xlink:href="#mf57c227c50" x="434.260426" y="291.862054" style="fill: #0000ff; fill-opacity: 0.5; stroke: #0000ff; stroke-opacity: 0.5"/>
     <use xlink:href="#mf57c227c50" x="434.260426" y="287.991567" style="fill: #0000ff; fill-opacity: 0.5; stroke: #0000ff; stroke-opacity: 0.5"/>
    </g>
   </g>
   <g id="patch_6">
    <path d="M 588.156596 168.187739 
L 622.355745 168.187739 
L 622.355745 135.904859 
L 588.156596 135.904859 
L 588.156596 168.187739 
z
" clip-path="url(#p140192b120)" style="fill: #0000ff; stroke: #0000ff; stroke-linejoin: miter"/>
   </g>
   <g id="line2d_35">
    <path d="M 605.25617 168.187739 
L 605.25617 207.811318 
" clip-path="url(#p140192b120)" style="fill: none; stroke: #0000ff; stroke-linecap: square"/>
   </g>
   <g id="line2d_36">
    <path d="M 605.25617 135.904859 
L 605.25617 88.200114 
" clip-path="url(#p140192b120)" style="fill: none; stroke: #0000ff; stroke-linecap: square"/>
   </g>
   <g id="line2d_37">
    <path d="M 596.706383 207.811318 
L 613.805957 207.811318 
" clip-path="url(#p140192b120)" style="fill: none; stroke: #0000ff; stroke-linecap: square"/>
   </g>
   <g id="line2d_38">
    <path d="M 596.706383 88.200114 
L 613.805957 88.200114 
" clip-path="url(#p140192b120)" style="fill: none; stroke: #0000ff; stroke-linecap: square"/>
   </g>
   <g id="line2d_39"/>
   <g id="patch_7">
    <path d="M 759.15234 205.38942 
L 793.351489 205.38942 
L 793.351489 166.953603 
L 759.15234 166.953603 
L 759.15234 205.38942 
z
" clip-path="url(#p140192b120)" style="fill: #0000ff; stroke: #0000ff; stroke-linejoin: miter"/>
   </g>
   <g id="line2d_40">
    <path d="M 776.251915 205.38942 
L 776.251915 256.267445 
" clip-path="url(#p140192b120)" style="fill: none; stroke: #0000ff; stroke-linecap: square"/>
   </g>
   <g id="line2d_41">
    <path d="M 776.251915 166.953603 
L 776.251915 122.376449 
" clip-path="url(#p140192b120)" style="fill: none; stroke: #0000ff; stroke-linecap: square"/>
   </g>
   <g id="line2d_42">
    <path d="M 767.702128 256.267445 
L 784.801702 256.267445 
" clip-path="url(#p140192b120)" style="fill: none; stroke: #0000ff; stroke-linecap: square"/>
   </g>
   <g id="line2d_43">
    <path d="M 767.702128 122.376449 
L 784.801702 122.376449 
" clip-path="url(#p140192b120)" style="fill: none; stroke: #0000ff; stroke-linecap: square"/>
   </g>
   <g id="line2d_44">
    <g clip-path="url(#p140192b120)">
     <use xlink:href="#mf57c227c50" x="776.251915" y="327.894508" style="fill: #0000ff; fill-opacity: 0.5; stroke: #0000ff; stroke-opacity: 0.5"/>
     <use xlink:href="#mf57c227c50" x="776.251915" y="105.936477" style="fill: #0000ff; fill-opacity: 0.5; stroke: #0000ff; stroke-opacity: 0.5"/>
    </g>
   </g>
   <g id="patch_8">
    <path d="M 109.368511 177.192562 
L 143.56766 177.192562 
L 143.56766 160.488986 
L 109.368511 160.488986 
L 109.368511 177.192562 
z
" clip-path="url(#p140192b120)" style="fill: #ff0000; stroke: #ff0000; stroke-linejoin: miter"/>
   </g>
   <g id="line2d_45">
    <path d="M 126.468085 177.192562 
L 126.468085 194.907741 
" clip-path="url(#p140192b120)" style="fill: none; stroke: #ff0000; stroke-linecap: square"/>
   </g>
   <g id="line2d_46">
    <path d="M 126.468085 160.488986 
L 126.468085 146.046274 
" clip-path="url(#p140192b120)" style="fill: none; stroke: #ff0000; stroke-linecap: square"/>
   </g>
   <g id="line2d_47">
    <path d="M 117.918298 194.907741 
L 135.017872 194.907741 
" clip-path="url(#p140192b120)" style="fill: none; stroke: #ff0000; stroke-linecap: square"/>
   </g>
   <g id="line2d_48">
    <path d="M 117.918298 146.046274 
L 135.017872 146.046274 
" clip-path="url(#p140192b120)" style="fill: none; stroke: #ff0000; stroke-linecap: square"/>
   </g>
   <g id="line2d_49">
    <defs>
     <path id="mefbcbfcb48" d="M 0 2.5 
C 0.663008 2.5 1.29895 2.236584 1.767767 1.767767 
C 2.236584 1.29895 2.5 0.663008 2.5 0 
C 2.5 -0.663008 2.236584 -1.29895 1.767767 -1.767767 
C 1.29895 -2.236584 0.663008 -2.5 0 -2.5 
C -0.663008 -2.5 -1.29895 -2.236584 -1.767767 -1.767767 
C -2.236584 -1.29895 -2.5 -0.663008 -2.5 0 
C -2.5 0.663008 -2.236584 1.29895 -1.767767 1.767767 
C -1.29895 2.236584 -0.663008 2.5 0 2.5 
z
" style="stroke: #ff0000; stroke-opacity: 0.5"/>
    </defs>
    <g clip-path="url(#p140192b120)">
     <use xlink:href="#mefbcbfcb48" x="126.468085" y="278.224388" style="fill: #ff0000; fill-opacity: 0.5; stroke: #ff0000; stroke-opacity: 0.5"/>
     <use xlink:href="#mefbcbfcb48" x="126.468085" y="281.605981" style="fill: #ff0000; fill-opacity: 0.5; stroke: #ff0000; stroke-opacity: 0.5"/>
     <use xlink:href="#mefbcbfcb48" x="126.468085" y="131.003559" style="fill: #ff0000; fill-opacity: 0.5; stroke: #ff0000; stroke-opacity: 0.5"/>
    </g>
   </g>
   <g id="patch_9">
    <path d="M 280.364255 178.945285 
L 314.563404 178.945285 
L 314.563404 117.587403 
L 280.364255 117.587403 
L 280.364255 178.945285 
z
" clip-path="url(#p140192b120)" style="fill: #ff0000; stroke: #ff0000; stroke-linejoin: miter"/>
   </g>
   <g id="line2d_50">
    <path d="M 297.46383 178.945285 
L 297.46383 237.296429 
" clip-path="url(#p140192b120)" style="fill: none; stroke: #ff0000; stroke-linecap: square"/>
   </g>
   <g id="line2d_51">
    <path d="M 297.46383 117.587403 
L 297.46383 102.646113 
" clip-path="url(#p140192b120)" style="fill: none; stroke: #ff0000; stroke-linecap: square"/>
   </g>
   <g id="line2d_52">
    <path d="M 288.914043 237.296429 
L 306.013617 237.296429 
" clip-path="url(#p140192b120)" style="fill: none; stroke: #ff0000; stroke-linecap: square"/>
   </g>
   <g id="line2d_53">
    <path d="M 288.914043 102.646113 
L 306.013617 102.646113 
" clip-path="url(#p140192b120)" style="fill: none; stroke: #ff0000; stroke-linecap: square"/>
   </g>
   <g id="line2d_54">
    <g clip-path="url(#p140192b120)">
     <use xlink:href="#mefbcbfcb48" x="297.46383" y="275.961362" style="fill: #ff0000; fill-opacity: 0.5; stroke: #ff0000; stroke-opacity: 0.5"/>
    </g>
   </g>
   <g id="patch_10">
    <path d="M 451.36 183.443721 
L 485.559149 183.443721 
L 485.559149 166.125426 
L 451.36 166.125426 
L 451.36 183.443721 
z
" clip-path="url(#p140192b120)" style="fill: #ff0000; stroke: #ff0000; stroke-linejoin: miter"/>
   </g>
   <g id="line2d_55">
    <path d="M 468.459574 183.443721 
L 468.459574 203.425491 
" clip-path="url(#p140192b120)" style="fill: none; stroke: #ff0000; stroke-linecap: square"/>
   </g>
   <g id="line2d_56">
    <path d="M 468.459574 166.125426 
L 468.459574 162.690543 
" clip-path="url(#p140192b120)" style="fill: none; stroke: #ff0000; stroke-linecap: square"/>
   </g>
   <g id="line2d_57">
    <path d="M 459.909787 203.425491 
L 477.009362 203.425491 
" clip-path="url(#p140192b120)" style="fill: none; stroke: #ff0000; stroke-linecap: square"/>
   </g>
   <g id="line2d_58">
    <path d="M 459.909787 162.690543 
L 477.009362 162.690543 
" clip-path="url(#p140192b120)" style="fill: none; stroke: #ff0000; stroke-linecap: square"/>
   </g>
   <g id="line2d_59">
    <g clip-path="url(#p140192b120)">
     <use xlink:href="#mefbcbfcb48" x="468.459574" y="285.282072" style="fill: #ff0000; fill-opacity: 0.5; stroke: #ff0000; stroke-opacity: 0.5"/>
     <use xlink:href="#mefbcbfcb48" x="468.459574" y="218.591311" style="fill: #ff0000; fill-opacity: 0.5; stroke: #ff0000; stroke-opacity: 0.5"/>
     <use xlink:href="#mefbcbfcb48" x="468.459574" y="114.573962" style="fill: #ff0000; fill-opacity: 0.5; stroke: #ff0000; stroke-opacity: 0.5"/>
     <use xlink:href="#mefbcbfcb48" x="468.459574" y="125.777244" style="fill: #ff0000; fill-opacity: 0.5; stroke: #ff0000; stroke-opacity: 0.5"/>
     <use xlink:href="#mefbcbfcb48" x="468.459574" y="125.136817" style="fill: #ff0000; fill-opacity: 0.5; stroke: #ff0000; stroke-opacity: 0.5"/>
    </g>
   </g>
   <g id="patch_11">
    <path d="M 622.355745 146.841673 
L 656.554894 146.841673 
L 656.554894 94.617735 
L 622.355745 94.617735 
L 622.355745 146.841673 
z
" clip-path="url(#p140192b120)" style="fill: #ff0000; stroke: #ff0000; stroke-linejoin: miter"/>
   </g>
   <g id="line2d_60">
    <path d="M 639.455319 146.841673 
L 639.455319 171.347521 
" clip-path="url(#p140192b120)" style="fill: none; stroke: #ff0000; stroke-linecap: square"/>
   </g>
   <g id="line2d_61">
    <path d="M 639.455319 94.617735 
L 639.455319 83.776953 
" clip-path="url(#p140192b120)" style="fill: none; stroke: #ff0000; stroke-linecap: square"/>
   </g>
   <g id="line2d_62">
    <path d="M 630.905532 171.347521 
L 648.005106 171.347521 
" clip-path="url(#p140192b120)" style="fill: none; stroke: #ff0000; stroke-linecap: square"/>
   </g>
   <g id="line2d_63">
    <path d="M 630.905532 83.776953 
L 648.005106 83.776953 
" clip-path="url(#p140192b120)" style="fill: none; stroke: #ff0000; stroke-linecap: square"/>
   </g>
   <g id="line2d_64"/>
   <g id="patch_12">
    <path d="M 793.351489 197.904812 
L 827.550638 197.904812 
L 827.550638 161.304659 
L 793.351489 161.304659 
L 793.351489 197.904812 
z
" clip-path="url(#p140192b120)" style="fill: #ff0000; stroke: #ff0000; stroke-linejoin: miter"/>
   </g>
   <g id="line2d_65">
    <path d="M 810.451064 197.904812 
L 810.451064 247.706199 
" clip-path="url(#p140192b120)" style="fill: none; stroke: #ff0000; stroke-linecap: square"/>
   </g>
   <g id="line2d_66">
    <path d="M 810.451064 161.304659 
L 810.451064 115.957121 
" clip-path="url(#p140192b120)" style="fill: none; stroke: #ff0000; stroke-linecap: square"/>
   </g>
   <g id="line2d_67">
    <path d="M 801.901277 247.706199 
L 819.000851 247.706199 
" clip-path="url(#p140192b120)" style="fill: none; stroke: #ff0000; stroke-linecap: square"/>
   </g>
   <g id="line2d_68">
    <path d="M 801.901277 115.957121 
L 819.000851 115.957121 
" clip-path="url(#p140192b120)" style="fill: none; stroke: #ff0000; stroke-linecap: square"/>
   </g>
   <g id="line2d_69">
    <g clip-path="url(#p140192b120)">
     <use xlink:href="#mefbcbfcb48" x="810.451064" y="268.426567" style="fill: #ff0000; fill-opacity: 0.5; stroke: #ff0000; stroke-opacity: 0.5"/>
     <use xlink:href="#mefbcbfcb48" x="810.451064" y="52.761502" style="fill: #ff0000; fill-opacity: 0.5; stroke: #ff0000; stroke-opacity: 0.5"/>
    </g>
   </g>
   <g id="line2d_70">
    <path d="M 75.169362 184.947101 
L 109.368511 184.947101 
" clip-path="url(#p140192b120)" style="fill: none; stroke: #ffffff"/>
   </g>
   <g id="line2d_71">
    <path d="M 246.165106 162.448601 
L 280.364255 162.448601 
" clip-path="url(#p140192b120)" style="fill: none; stroke: #ffffff"/>
   </g>
   <g id="line2d_72">
    <path d="M 417.160851 172.649093 
L 451.36 172.649093 
" clip-path="url(#p140192b120)" style="fill: none; stroke: #ffffff"/>
   </g>
   <g id="line2d_73">
    <path d="M 588.156596 150.450506 
L 622.355745 150.450506 
" clip-path="url(#p140192b120)" style="fill: none; stroke: #ffffff"/>
   </g>
   <g id="line2d_74">
    <path d="M 759.15234 190.448825 
L 793.351489 190.448825 
" clip-path="url(#p140192b120)" style="fill: none; stroke: #ffffff"/>
   </g>
   <g id="line2d_75">
    <path d="M 109.368511 169.14885 
L 143.56766 169.14885 
" clip-path="url(#p140192b120)" style="fill: none; stroke: #ffffff"/>
   </g>
   <g id="line2d_76">
    <path d="M 280.364255 138.366593 
L 314.563404 138.366593 
" clip-path="url(#p140192b120)" style="fill: none; stroke: #ffffff"/>
   </g>
   <g id="line2d_77">
    <path d="M 451.36 178.945285 
L 485.559149 178.945285 
" clip-path="url(#p140192b120)" style="fill: none; stroke: #ffffff"/>
   </g>
   <g id="line2d_78">
    <path d="M 622.355745 122.538449 
L 656.554894 122.538449 
" clip-path="url(#p140192b120)" style="fill: none; stroke: #ffffff"/>
   </g>
   <g id="line2d_79">
    <path d="M 793.351489 173.743318 
L 827.550638 173.743318 
" clip-path="url(#p140192b120)" style="fill: none; stroke: #ffffff"/>
   </g>
   <g id="patch_13">
    <path d="M 49.52 342.159961 
L 49.52 28.32 
" style="fill: none; stroke: #000000; stroke-width: 0.8; stroke-linejoin: miter; stroke-linecap: square"/>
   </g>
   <g id="patch_14">
    <path d="M 853.2 342.159961 
L 853.2 28.32 
" style="fill: none; stroke: #000000; stroke-width: 0.8; stroke-linejoin: miter; stroke-linecap: square"/>
   </g>
   <g id="patch_15">
    <path d="M 49.52 342.159961 
L 853.2 342.159961 
" style="fill: none; stroke: #000000; stroke-width: 0.8; stroke-linejoin: miter; stroke-linecap: square"/>
   </g>
   <g id="patch_16">
    <path d="M 49.52 28.32 
L 853.2 28.32 
" style="fill: none; stroke: #000000; stroke-width: 0.8; stroke-linejoin: miter; stroke-linecap: square"/>
   </g>
   <g id="text_14">
    <!-- Comparación medidas con cámara entre Eclipse 15.6 y 18.0 -->
    <g transform="translate(239.893281 22.32) scale(0.14 -0.14)">
     <defs>
      <path id="DejaVuSans-6d" d="M 3328 2828 
Q 3544 3216 3844 3400 
Q 4144 3584 4550 3584 
Q 5097 3584 5394 3201 
Q 5691 2819 5691 2113 
L 5691 0 
L 5113 0 
L 5113 2094 
Q 5113 2597 4934 2840 
Q 4756 3084 4391 3084 
Q 3944 3084 3684 2787 
Q 3425 2491 3425 1978 
L 3425 0 
L 2847 0 
L 2847 2094 
Q 2847 2600 2669 2842 
Q 2491 3084 2119 3084 
Q 1678 3084 1418 2786 
Q 1159 2488 1159 1978 
L 1159 0 
L 581 0 
L 581 3500 
L 1159 3500 
L 1159 2956 
Q 1356 3278 1631 3431 
Q 1906 3584 2284 3584 
Q 2666 3584 2933 3390 
Q 3200 3197 3328 2828 
z
" transform="scale(0.015625)"/>
      <path id="DejaVuSans-70" d="M 1159 525 
L 1159 -1331 
L 581 -1331 
L 581 3500 
L 1159 3500 
L 1159 2969 
Q 1341 3281 1617 3432 
Q 1894 3584 2278 3584 
Q 2916 3584 3314 3078 
Q 3713 2572 3713 1747 
Q 3713 922 3314 415 
Q 2916 -91 2278 -91 
Q 1894 -91 1617 61 
Q 1341 213 1159 525 
z
M 3116 1747 
Q 3116 2381 2855 2742 
Q 2594 3103 2138 3103 
Q 1681 3103 1420 2742 
Q 1159 2381 1159 1747 
Q 1159 1113 1420 752 
Q 1681 391 2138 391 
Q 2594 391 2855 752 
Q 3116 1113 3116 1747 
z
" transform="scale(0.015625)"/>
      <path id="DejaVuSans-72" d="M 2631 2963 
Q 2534 3019 2420 3045 
Q 2306 3072 2169 3072 
Q 1681 3072 1420 2755 
Q 1159 2438 1159 1844 
L 1159 0 
L 581 0 
L 581 3500 
L 1159 3500 
L 1159 2956 
Q 1341 3275 1631 3429 
Q 1922 3584 2338 3584 
Q 2397 3584 2469 3576 
Q 2541 3569 2628 3553 
L 2631 2963 
z
" transform="scale(0.015625)"/>
      <path id="DejaVuSans-63" d="M 3122 3366 
L 3122 2828 
Q 2878 2963 2633 3030 
Q 2388 3097 2138 3097 
Q 1578 3097 1268 2742 
Q 959 2388 959 1747 
Q 959 1106 1268 751 
Q 1578 397 2138 397 
Q 2388 397 2633 464 
Q 2878 531 3122 666 
L 3122 134 
Q 2881 22 2623 -34 
Q 2366 -91 2075 -91 
Q 1284 -91 818 406 
Q 353 903 353 1747 
Q 353 2603 823 3093 
Q 1294 3584 2113 3584 
Q 2378 3584 2631 3529 
Q 2884 3475 3122 3366 
z
" transform="scale(0.015625)"/>
      <path id="DejaVuSans-f3" d="M 1959 3097 
Q 1497 3097 1228 2736 
Q 959 2375 959 1747 
Q 959 1119 1226 758 
Q 1494 397 1959 397 
Q 2419 397 2687 759 
Q 2956 1122 2956 1747 
Q 2956 2369 2687 2733 
Q 2419 3097 1959 3097 
z
M 1959 3584 
Q 2709 3584 3137 3096 
Q 3566 2609 3566 1747 
Q 3566 888 3137 398 
Q 2709 -91 1959 -91 
Q 1206 -91 779 398 
Q 353 888 353 1747 
Q 353 2609 779 3096 
Q 1206 3584 1959 3584 
z
M 2394 5119 
L 3016 5119 
L 1998 3944 
L 1519 3944 
L 2394 5119 
z
" transform="scale(0.015625)"/>
      <path id="DejaVuSans-6e" d="M 3513 2113 
L 3513 0 
L 2938 0 
L 2938 2094 
Q 2938 2591 2744 2837 
Q 2550 3084 2163 3084 
Q 1697 3084 1428 2787 
Q 1159 2491 1159 1978 
L 1159 0 
L 581 0 
L 581 3500 
L 1159 3500 
L 1159 2956 
Q 1366 3272 1645 3428 
Q 1925 3584 2291 3584 
Q 2894 3584 3203 3211 
Q 3513 2838 3513 2113 
z
" transform="scale(0.015625)"/>
      <path id="DejaVuSans-64" d="M 2906 2969 
L 2906 4863 
L 3481 4863 
L 3481 0 
L 2906 0 
L 2906 525 
Q 2725 213 2448 61 
Q 2172 -91 1784 -91 
Q 1150 -91 751 415 
Q 353 922 353 1747 
Q 353 2572 751 3078 
Q 1150 3584 1784 3584 
Q 2172 3584 2448 3432 
Q 2725 3281 2906 2969 
z
M 947 1747 
Q 947 1113 1208 752 
Q 1469 391 1925 391 
Q 2381 391 2643 752 
Q 2906 1113 2906 1747 
Q 2906 2381 2643 2742 
Q 2381 3103 1925 3103 
Q 1469 3103 1208 2742 
Q 947 2381 947 1747 
z
" transform="scale(0.015625)"/>
      <path id="DejaVuSans-e1" d="M 2194 1759 
Q 1497 1759 1228 1600 
Q 959 1441 959 1056 
Q 959 750 1161 570 
Q 1363 391 1709 391 
Q 2188 391 2477 730 
Q 2766 1069 2766 1631 
L 2766 1759 
L 2194 1759 
z
M 3341 1997 
L 3341 0 
L 2766 0 
L 2766 531 
Q 2569 213 2275 61 
Q 1981 -91 1556 -91 
Q 1019 -91 701 211 
Q 384 513 384 1019 
Q 384 1609 779 1909 
Q 1175 2209 1959 2209 
L 2766 2209 
L 2766 2266 
Q 2766 2663 2505 2880 
Q 2244 3097 1772 3097 
Q 1472 3097 1187 3025 
Q 903 2953 641 2809 
L 641 3341 
Q 956 3463 1253 3523 
Q 1550 3584 1831 3584 
Q 2591 3584 2966 3190 
Q 3341 2797 3341 1997 
z
M 2290 5119 
L 2912 5119 
L 1894 3944 
L 1415 3944 
L 2290 5119 
z
" transform="scale(0.015625)"/>
      <path id="DejaVuSans-35" d="M 691 4666 
L 3169 4666 
L 3169 4134 
L 1269 4134 
L 1269 2991 
Q 1406 3038 1543 3061 
Q 1681 3084 1819 3084 
Q 2600 3084 3056 2656 
Q 3513 2228 3513 1497 
Q 3513 744 3044 326 
Q 2575 -91 1722 -91 
Q 1428 -91 1123 -41 
Q 819 9 494 109 
L 494 744 
Q 775 591 1075 516 
Q 1375 441 1709 441 
Q 2250 441 2565 725 
Q 2881 1009 2881 1497 
Q 2881 1984 2565 2268 
Q 2250 2553 1709 2553 
Q 1456 2553 1204 2497 
Q 953 2441 691 2322 
L 691 4666 
z
" transform="scale(0.015625)"/>
      <path id="DejaVuSans-36" d="M 2113 2584 
Q 1688 2584 1439 2293 
Q 1191 2003 1191 1497 
Q 1191 994 1439 701 
Q 1688 409 2113 409 
Q 2538 409 2786 701 
Q 3034 994 3034 1497 
Q 3034 2003 2786 2293 
Q 2538 2584 2113 2584 
z
M 3366 4563 
L 3366 3988 
Q 3128 4100 2886 4159 
Q 2644 4219 2406 4219 
Q 1781 4219 1451 3797 
Q 1122 3375 1075 2522 
Q 1259 2794 1537 2939 
Q 1816 3084 2150 3084 
Q 2853 3084 3261 2657 
Q 3669 2231 3669 1497 
Q 3669 778 3244 343 
Q 2819 -91 2113 -91 
Q 1303 -91 875 529 
Q 447 1150 447 2328 
Q 447 3434 972 4092 
Q 1497 4750 2381 4750 
Q 2619 4750 2861 4703 
Q 3103 4656 3366 4563 
z
" transform="scale(0.015625)"/>
      <path id="DejaVuSans-79" d="M 2059 -325 
Q 1816 -950 1584 -1140 
Q 1353 -1331 966 -1331 
L 506 -1331 
L 506 -850 
L 844 -850 
Q 1081 -850 1212 -737 
Q 1344 -625 1503 -206 
L 1606 56 
L 191 3500 
L 800 3500 
L 1894 763 
L 2988 3500 
L 3597 3500 
L 2059 -325 
z
" transform="scale(0.015625)"/>
      <path id="DejaVuSans-38" d="M 2034 2216 
Q 1584 2216 1326 1975 
Q 1069 1734 1069 1313 
Q 1069 891 1326 650 
Q 1584 409 2034 409 
Q 2484 409 2743 651 
Q 3003 894 3003 1313 
Q 3003 1734 2745 1975 
Q 2488 2216 2034 2216 
z
M 1403 2484 
Q 997 2584 770 2862 
Q 544 3141 544 3541 
Q 544 4100 942 4425 
Q 1341 4750 2034 4750 
Q 2731 4750 3128 4425 
Q 3525 4100 3525 3541 
Q 3525 3141 3298 2862 
Q 3072 2584 2669 2484 
Q 3125 2378 3379 2068 
Q 3634 1759 3634 1313 
Q 3634 634 3220 271 
Q 2806 -91 2034 -91 
Q 1263 -91 848 271 
Q 434 634 434 1313 
Q 434 1759 690 2068 
Q 947 2378 1403 2484 
z
M 1172 3481 
Q 1172 3119 1398 2916 
Q 1625 2713 2034 2713 
Q 2441 2713 2670 2916 
Q 2900 3119 2900 3481 
Q 2900 3844 2670 4047 
Q 2441 4250 2034 4250 
Q 1625 4250 1398 4047 
Q 1172 3844 1172 3481 
z
" transform="scale(0.015625)"/>
     </defs>
     <use xlink:href="#DejaVuSans-43"/>
     <use xlink:href="#DejaVuSans-6f" transform="translate(69.824219 0)"/>
     <use xlink:href="#DejaVuSans-6d" transform="translate(131.005859 0)"/>
     <use xlink:href="#DejaVuSans-70" transform="translate(228.417969 0)"/>
     <use xlink:href="#DejaVuSans-61" transform="translate(291.894531 0)"/>
     <use xlink:href="#DejaVuSans-72" transform="translate(353.173828 0)"/>
     <use xlink:href="#DejaVuSans-61" transform="translate(394.287109 0)"/>
     <use xlink:href="#DejaVuSans-63" transform="translate(455.566406 0)"/>
     <use xlink:href="#DejaVuSans-69" transform="translate(510.546875 0)"/>
     <use xlink:href="#DejaVuSans-f3" transform="translate(538.330078 0)"/>
     <use xlink:href="#DejaVuSans-6e" transform="translate(599.511719 0)"/>
     <use xlink:href="#DejaVuSans-20" transform="translate(662.890625 0)"/>
     <use xlink:href="#DejaVuSans-6d" transform="translate(694.677734 0)"/>
     <use xlink:href="#DejaVuSans-65" transform="translate(792.089844 0)"/>
     <use xlink:href="#DejaVuSans-64" transform="translate(853.613281 0)"/>
     <use xlink:href="#DejaVuSans-69" transform="translate(917.089844 0)"/>
     <use xlink:href="#DejaVuSans-64" transform="translate(944.873047 0)"/>
     <use xlink:href="#DejaVuSans-61" transform="translate(1008.349609 0)"/>
     <use xlink:href="#DejaVuSans-73" transform="translate(1069.628906 0)"/>
     <use xlink:href="#DejaVuSans-20" transform="translate(1121.728516 0)"/>
     <use xlink:href="#DejaVuSans-63" transform="translate(1153.515625 0)"/>
     <use xlink:href="#DejaVuSans-6f" transform="translate(1208.496094 0)"/>
     <use xlink:href="#DejaVuSans-6e" transform="translate(1269.677734 0)"/>
     <use xlink:href="#DejaVuSans-20" transform="translate(1333.056641 0)"/>
     <use xlink:href="#DejaVuSans-63" transform="translate(1364.84375 0)"/>
     <use xlink:href="#DejaVuSans-e1" transform="translate(1419.824219 0)"/>
     <use xlink:href="#DejaVuSans-6d" transform="translate(1481.103516 0)"/>
     <use xlink:href="#DejaVuSans-61" transform="translate(1578.515625 0)"/>
     <use xlink:href="#DejaVuSans-72" transform="translate(1639.794922 0)"/>
     <use xlink:href="#DejaVuSans-61" transform="translate(1680.908203 0)"/>
     <use xlink:href="#DejaVuSans-20" transform="translate(1742.1875 0)"/>
     <use xlink:href="#DejaVuSans-65" transform="translate(1773.974609 0)"/>
     <use xlink:href="#DejaVuSans-6e" transform="translate(1835.498047 0)"/>
     <use xlink:href="#DejaVuSans-74" transform="translate(1898.876953 0)"/>
     <use xlink:href="#DejaVuSans-72" transform="translate(1938.085938 0)"/>
     <use xlink:href="#DejaVuSans-65" transform="translate(1976.949219 0)"/>
     <use xlink:href="#DejaVuSans-20" transform="translate(2038.472656 0)"/>
     <use xlink:href="#DejaVuSans-45" transform="translate(2070.259766 0)"/>
     <use xlink:href="#DejaVuSans-63" transform="translate(2133.443359 0)"/>
     <use xlink:href="#DejaVuSans-6c" transform="translate(2188.423828 0)"/>
     <use xlink:href="#DejaVuSans-69" transform="translate(2216.207031 0)"/>
     <use xlink:href="#DejaVuSans-70" transform="translate(2243.990234 0)"/>
     <use xlink:href="#DejaVuSans-73" transform="translate(2307.466797 0)"/>
     <use xlink:href="#DejaVuSans-65" transform="translate(2359.566406 0)"/>
     <use xlink:href="#DejaVuSans-20" transform="translate(2421.089844 0)"/>
     <use xlink:href="#DejaVuSans-31" transform="translate(2452.876953 0)"/>
     <use xlink:href="#DejaVuSans-35" transform="translate(2516.5 0)"/>
     <use xlink:href="#DejaVuSans-2e" transform="translate(2580.123047 0)"/>
     <use xlink:href="#DejaVuSans-36" transform="translate(2611.910156 0)"/>
     <use xlink:href="#DejaVuSans-20" transform="translate(2675.533203 0)"/>
     <use xlink:href="#DejaVuSans-79" transform="translate(2707.320312 0)"/>
     <use xlink:href="#DejaVuSans-20" transform="translate(2766.5 0)"/>
     <use xlink:href="#DejaVuSans-31" transform="translate(2798.287109 0)"/>
     <use xlink:href="#DejaVuSans-38" transform="translate(2861.910156 0)"/>
     <use xlink:href="#DejaVuSans-2e" transform="translate(2925.533203 0)"/>
     <use xlink:href="#DejaVuSans-30" transform="translate(2957.320312 0)"/>
    </g>
   </g>
   <g id="legend_1">
    <g id="patch_17">
     <path d="M 753.671875 65.67625 
L 846.2 65.67625 
Q 848.2 65.67625 848.2 63.67625 
L 848.2 35.32 
Q 848.2 33.32 846.2 33.32 
L 753.671875 33.32 
Q 751.671875 33.32 751.671875 35.32 
L 751.671875 63.67625 
Q 751.671875 65.67625 753.671875 65.67625 
z
" style="fill: #ffffff; opacity: 0.8; stroke: #cccccc; stroke-linejoin: miter"/>
    </g>
    <g id="patch_18">
     <path d="M 755.671875 44.918437 
L 775.671875 44.918437 
L 775.671875 37.918437 
L 755.671875 37.918437 
z
" style="fill: #0000ff; stroke: #0000ff; stroke-linejoin: miter"/>
    </g>
    <g id="text_15">
     <!-- Eclipse 15.6 -->
     <g transform="translate(783.671875 44.918437) scale(0.1 -0.1)">
      <use xlink:href="#DejaVuSans-45"/>
      <use xlink:href="#DejaVuSans-63" transform="translate(63.183594 0)"/>
      <use xlink:href="#DejaVuSans-6c" transform="translate(118.164062 0)"/>
      <use xlink:href="#DejaVuSans-69" transform="translate(145.947266 0)"/>
      <use xlink:href="#DejaVuSans-70" transform="translate(173.730469 0)"/>
      <use xlink:href="#DejaVuSans-73" transform="translate(237.207031 0)"/>
      <use xlink:href="#DejaVuSans-65" transform="translate(289.306641 0)"/>
      <use xlink:href="#DejaVuSans-20" transform="translate(350.830078 0)"/>
      <use xlink:href="#DejaVuSans-31" transform="translate(382.617188 0)"/>
      <use xlink:href="#DejaVuSans-35" transform="translate(446.240234 0)"/>
      <use xlink:href="#DejaVuSans-2e" transform="translate(509.863281 0)"/>
      <use xlink:href="#DejaVuSans-36" transform="translate(541.650391 0)"/>
     </g>
    </g>
    <g id="patch_19">
     <path d="M 755.671875 59.596563 
L 775.671875 59.596563 
L 775.671875 52.596563 
L 755.671875 52.596563 
z
" style="fill: #ff0000; stroke: #ff0000; stroke-linejoin: miter"/>
    </g>
    <g id="text_16">
     <!-- Eclipse 18.0 -->
     <g transform="translate(783.671875 59.596563) scale(0.1 -0.1)">
      <use xlink:href="#DejaVuSans-45"/>
      <use xlink:href="#DejaVuSans-63" transform="translate(63.183594 0)"/>
      <use xlink:href="#DejaVuSans-6c" transform="translate(118.164062 0)"/>
      <use xlink:href="#DejaVuSans-69" transform="translate(145.947266 0)"/>
      <use xlink:href="#DejaVuSans-70" transform="translate(173.730469 0)"/>
      <use xlink:href="#DejaVuSans-73" transform="translate(237.207031 0)"/>
      <use xlink:href="#DejaVuSans-65" transform="translate(289.306641 0)"/>
      <use xlink:href="#DejaVuSans-20" transform="translate(350.830078 0)"/>
      <use xlink:href="#DejaVuSans-31" transform="translate(382.617188 0)"/>
      <use xlink:href="#DejaVuSans-38" transform="translate(446.240234 0)"/>
      <use xlink:href="#DejaVuSans-2e" transform="translate(509.863281 0)"/>
      <use xlink:href="#DejaVuSans-30" transform="translate(541.650391 0)"/>
     </g>
    </g>
   </g>
  </g>
 </g>
 <defs>
  <clipPath id="p140192b120">
   <rect x="49.52" y="28.32" width="803.68" height="313.839961"/>
  </clipPath>
 </defs>
</svg>
